<svg xmlns="http://www.w3.org/2000/svg" width="16" height="16" viewBox="0 0 16 16">
  <defs>
    <style>
      .cls-1 {
        fill: #95e1d3;
        fill-rule: evenodd;
      }
    </style>
  </defs>
  <path id="dribbble.svg" class="cls-1" d="M638.837,9782.4a7.9,7.9,0,0,0-.466-1.5,8.22,8.22,0,0,0-.738-1.36,8.093,8.093,0,0,0-.976-1.18,8.443,8.443,0,0,0-1.184-.98,7.971,7.971,0,0,0-8.947,0,8.434,8.434,0,0,0-1.183.98,8.093,8.093,0,0,0-.976,1.18,8.22,8.22,0,0,0-.738,1.36,7.9,7.9,0,0,0-.467,1.5,8.131,8.131,0,0,0,0,3.23,7.9,7.9,0,0,0,.467,1.5,8.22,8.22,0,0,0,.738,1.36,8.093,8.093,0,0,0,.976,1.18,8.434,8.434,0,0,0,1.183.98,7.971,7.971,0,0,0,8.947,0,8.443,8.443,0,0,0,1.184-.98,8.093,8.093,0,0,0,.976-1.18,8.22,8.22,0,0,0,.738-1.36,7.9,7.9,0,0,0,.466-1.5A8.082,8.082,0,0,0,638.837,9782.4Zm-1.007,1.55a15.962,15.962,0,0,0-4.759-.23c-0.048-.11-0.1-0.23-0.147-0.35-0.142-.33-0.295-0.67-0.454-0.99a8.874,8.874,0,0,0,3.807-2.7A6.794,6.794,0,0,1,637.83,9783.95Zm-2.317-5.06a7.451,7.451,0,0,1-3.569,2.47,34.349,34.349,0,0,0-2.554-3.98,6.581,6.581,0,0,1,1.61-.2A6.812,6.812,0,0,1,635.513,9778.89Zm-6.149-1.51h0a0.039,0.039,0,0,0-.02.01A0.022,0.022,0,0,1,629.364,9777.38Zm-1.279.46a40.568,40.568,0,0,1,2.537,3.93,25.7,25.7,0,0,1-6.308.84A6.831,6.831,0,0,1,628.085,9777.84Zm-3.917,6.17c0-.07,0-0.14,0-0.21a25.209,25.209,0,0,0,7.015-.97c0.2,0.38.383,0.77,0.554,1.16a2.662,2.662,0,0,0-.269.08,10.8,10.8,0,0,0-5.557,4.51h0A6.807,6.807,0,0,1,624.168,9784.01Zm6.832,6.84a6.8,6.8,0,0,1-4.352-1.57l0.153,0.12a9.25,9.25,0,0,1,5.362-4.27c0.015,0,.03-0.01.045-0.01a28.411,28.411,0,0,1,1.459,5.19A6.951,6.951,0,0,1,631,9790.85Zm3.818-1.17a29.625,29.625,0,0,0-1.33-4.88,9.871,9.871,0,0,1,4.258.3A6.827,6.827,0,0,1,634.818,9789.68Z" transform="translate(-623 -9776)"/>
</svg>
