<svg xmlns="http://www.w3.org/2000/svg" width="16" height="13.78" viewBox="0 0 16 13.78">
  <defs>
    <style>
      .cls-1 {
        fill: #95e1d3;
        fill-rule: evenodd;
      }
    </style>
  </defs>
  <path id="g-plus.svg" class="cls-1" d="M576.5,9780.72v2.44h-1v-2.44H573v-1h2.5v-2.44h1v2.44H579v1h-2.5Zm-6.915-2.47a2.55,2.55,0,0,1,1.408,2.33,2.721,2.721,0,0,1-1.239,2.1,1.356,1.356,0,0,0-.81,1.18,2.684,2.684,0,0,0,1.111,1.29,2.866,2.866,0,0,1,1.444,2.7c0,1.49-1.444,3.17-4.116,3.17-2.344,0-4.383-1.12-4.383-2.62,0-1.52,1.866-2.99,4.209-2.99,0.256,0,.49-0.01.732-0.01a1.621,1.621,0,0,1-.574-1.15,1.774,1.774,0,0,1,.213-0.79c-0.127.01-.257-0.01-0.391-0.01a3.059,3.059,0,0,1-3.214-3.05c0-1.64,1.781-3.14,3.673-3.14h4.22l-0.945.99h-1.338Zm-1.929,7.55c-1.62-.02-3.071.97-3.071,2.15,0,1.21,1.17,2.1,2.789,2.1,2.277,0,3.071-.82,3.071-2.03a1.8,1.8,0,0,0-.052-0.43c-0.178-.69-0.808-1.02-1.688-1.62A3.209,3.209,0,0,0,567.656,9785.8Zm1.82-5.2a2.813,2.813,0,0,0-2.356-2.56c-1.087-.03-1.816,1.04-1.628,2.44a2.827,2.827,0,0,0,2.308,2.6C568.887,9783.11,569.663,9782,569.476,9780.6Z" transform="translate(-563 -9777.25)"/>
</svg>
